<?xml version="1.0" encoding="iso-8859-1"?>
<!-- Generator: Adobe Illustrator 19.0.0, SVG Export Plug-In . SVG Version: 6.00 Build 0)  -->
<svg version="1.1" id="Capa_1" xmlns="http://www.w3.org/2000/svg" xmlns:xlink="http://www.w3.org/1999/xlink" x="0px" y="0px"
	 viewBox="0 0 511.616 511.616" style="enable-background:new 0 0 511.616 511.616;" xml:space="preserve">
<polygon style="fill:#FFDB70;" points="255.808,0 305.92,154.256 468.112,154.256 336.896,249.584 387.024,403.824 255.808,308.496 
	124.592,403.824 174.72,249.584 43.504,154.256 205.696,154.256 "/>
<g>
	<polygon style="fill:#FDBC4B;" points="255.808,0 255.808,220.176 305.92,154.256 	"/>
	<polygon style="fill:#FDBC4B;" points="255.808,220.176 468.112,154.256 336.896,249.584 	"/>
	<polygon style="fill:#FDBC4B;" points="255.808,220.176 387.024,403.824 255.808,308.496 	"/>
	<polygon style="fill:#FDBC4B;" points="255.808,220.176 174.72,249.584 124.592,403.824 	"/>
	<polygon style="fill:#FDBC4B;" points="43.504,154.256 205.696,154.256 255.808,220.176 	"/>
</g>
<path style="fill:#E95454;" d="M31.52,511.616c34.736-16.352,70.608-28.72,107.056-37.136c-4.848-24.816-9.68-49.648-14.528-74.464
	c-40.96,9.456-81.28,23.36-120.32,41.744c16.8,5.92,33.04,12.592,48.704,19.936C44.672,478.208,37.712,494.88,31.52,511.616z"/>
<path style="fill:#CD494C;" d="M131.872,440.144c2.24,11.44,4.464,22.88,6.704,34.336c-17.04-8.032-34.816-15.216-53.28-21.424
	C100.688,448.048,116.224,443.76,131.872,440.144z"/>
<path style="fill:#E95454;" d="M480.096,511.616c-34.736-16.352-70.608-28.72-107.056-37.136
	c4.848-24.816,9.68-49.648,14.528-74.464c40.96,9.456,81.28,23.36,120.32,41.744c-16.8,5.92-33.04,12.592-48.704,19.936
	C466.944,478.208,473.904,494.88,480.096,511.616z"/>
<path style="fill:#CD494C;" d="M379.744,440.144c-2.24,11.44-4.464,22.88-6.704,34.336c17.04-8.032,34.816-15.216,53.28-21.424
	C410.928,448.048,395.392,443.76,379.744,440.144z"/>
<path style="fill:#ED6362;" d="M426.336,453.04c-111.232-36.064-229.808-36.064-341.04,0c-8.624-31.488-17.264-62.976-25.888-94.464
	c128.128-41.536,264.688-41.536,392.816,0C443.584,390.064,434.96,421.552,426.336,453.04z"/>
<g>
	<path style="fill:#FFFFFF;" d="M153.472,353.248c4.08,7.568,8.048,15.152,11.936,22.8c9.184-1.408,18.384-2.592,27.6-3.568
		c-7.008,5.792-13.856,11.728-20.512,17.76c3.76,7.68,7.424,15.392,10.992,23.136c-7.568-4.096-15.296-8.032-23.168-11.808
		c-6.448,6.176-12.736,12.464-18.848,18.848c1.264-8.56,2.624-17.104,4.096-25.664c-8.048-3.568-16.224-6.976-24.544-10.208
		c9.104-2.096,18.224-3.984,27.376-5.648C150,370.336,151.68,361.792,153.472,353.248z"/>
	<path style="fill:#FFFFFF;" d="M255.808,344.72c2.96,8.144,5.808,16.32,8.576,24.496c9.248,0.128,18.496,0.48,27.744,1.04
		c-7.728,4.576-15.312,9.296-22.736,14.16c2.64,8.208,5.184,16.432,7.616,24.688c-6.896-5.296-13.968-10.48-21.184-15.504
		c-7.232,5.04-14.288,10.208-21.184,15.504c2.432-8.24,4.976-16.464,7.616-24.688c-7.424-4.864-15.008-9.584-22.736-14.16
		c9.248-0.56,18.48-0.912,27.744-1.04C250,361.024,252.848,352.864,255.808,344.72z"/>
	<path style="fill:#FFFFFF;" d="M358.144,353.248c1.792,8.544,3.488,17.088,5.072,25.648c9.152,1.664,18.288,3.552,27.376,5.648
		c-8.32,3.232-16.496,6.64-24.544,10.208c1.472,8.56,2.832,17.104,4.096,25.664c-6.112-6.384-12.384-12.672-18.848-18.848
		c-7.872,3.776-15.584,7.712-23.152,11.808c3.568-7.744,7.232-15.456,10.992-23.136c-6.672-6.048-13.504-11.968-20.512-17.76
		c9.216,0.976,18.416,2.16,27.6,3.568C350.096,368.4,354.064,360.8,358.144,353.248z"/>
</g>
<g>
</g>
<g>
</g>
<g>
</g>
<g>
</g>
<g>
</g>
<g>
</g>
<g>
</g>
<g>
</g>
<g>
</g>
<g>
</g>
<g>
</g>
<g>
</g>
<g>
</g>
<g>
</g>
<g>
</g>
</svg>
